<svg id="SvgjsSvg1224" width="686" height="238" xmlns="http://www.w3.org/2000/svg" version="1.1" xmlns:xlink="http://www.w3.org/1999/xlink" xmlns:svgjs="http://svgjs.com/svgjs"><defs id="SvgjsDefs1225"><pattern patternUnits="userSpaceOnUse" id="pattern_mark_0" width="300" height="300"><text x="150" y="100" fill="rgba(229,229,229,0.8)" font-size="18" transform="rotate(-45, 150, 150)" style="dominant-baseline: middle; text-anchor: middle;"></text></pattern><pattern patternUnits="userSpaceOnUse" id="pattern_mark_1" width="300" height="300"><text x="150" y="200" fill="rgba(229,229,229,0.8)" font-size="18" transform="rotate(-45, 150, 150)" style="dominant-baseline: middle; text-anchor: middle;"></text></pattern><marker id="SvgjsMarker1273" markerWidth="13" markerHeight="9" refX="9.5" refY="4.5" viewBox="0 0 13 9" orient="auto" markerUnits="userSpaceOnUse" stroke-dasharray="0,0"><path id="SvgjsPath1274" d="M0,0 L13,4.5 L0,9 L0,0" fill="#323232" stroke="#323232" stroke-width="1"></path></marker><marker id="SvgjsMarker1277" markerWidth="13" markerHeight="9" refX="9.5" refY="4.5" viewBox="0 0 13 9" orient="auto" markerUnits="userSpaceOnUse" stroke-dasharray="0,0"><path id="SvgjsPath1278" d="M0,0 L13,4.5 L0,9 L0,0" fill="#323232" stroke="#323232" stroke-width="1"></path></marker><marker id="SvgjsMarker1281" markerWidth="13" markerHeight="9" refX="9.5" refY="4.5" viewBox="0 0 13 9" orient="auto" markerUnits="userSpaceOnUse" stroke-dasharray="0,0"><path id="SvgjsPath1282" d="M0,0 L13,4.5 L0,9 L0,0" fill="#323232" stroke="#323232" stroke-width="1"></path></marker><marker id="SvgjsMarker1285" markerWidth="13" markerHeight="9" refX="9.5" refY="4.5" viewBox="0 0 13 9" orient="auto" markerUnits="userSpaceOnUse" stroke-dasharray="0,0"><path id="SvgjsPath1286" d="M0,0 L13,4.5 L0,9 L0,0" fill="#323232" stroke="#323232" stroke-width="1"></path></marker><marker id="SvgjsMarker1305" markerWidth="13" markerHeight="9" refX="9.5" refY="4.5" viewBox="0 0 13 9" orient="auto" markerUnits="userSpaceOnUse" stroke-dasharray="0,0"><path id="SvgjsPath1306" d="M0,0 L13,4.5 L0,9 L0,0" fill="#323232" stroke="#323232" stroke-width="1"></path></marker></defs><rect id="svgbackgroundid" width="686" height="238" fill="transparent"></rect><rect id="SvgjsRect1227" width="686" height="238" fill="url(#pattern_mark_0)"></rect><rect id="SvgjsRect1228" width="686" height="238" fill="url(#pattern_mark_1)"></rect><g id="SvgjsG1229" transform="translate(25,25)"><path id="SvgjsPath1230" d="M 0 4Q 0 0 4 0L 111 0Q 115 0 115 4L 115 50Q 115 54 111 54L 4 54Q 0 54 0 50Z" stroke="rgba(33,41,48,1)" stroke-width="1.5" fill-opacity="1" fill="#ffffff"></path><g id="SvgjsG1231"><text id="SvgjsText1232" font-family="微软雅黑" text-anchor="middle" font-size="13px" width="95px" fill="#323232" font-weight="400" align="middle" lineHeight="125%" anchor="middle" family="微软雅黑" size="13px" weight="400" font-style="" opacity="1" y="8.375" transform="rotate(0)"><tspan id="SvgjsTspan1233" dy="16.25" x="57.5"><tspan id="SvgjsTspan1234" style="">Dynamic </tspan></tspan><tspan id="SvgjsTspan1235" dy="16.25" x="57.5"><tspan id="SvgjsTspan1236" style="">Programming</tspan></tspan></text></g></g><g id="SvgjsG1237" transform="translate(260,25)"><path id="SvgjsPath1238" d="M 0 4Q 0 0 4 0L 111 0Q 115 0 115 4L 115 50Q 115 54 111 54L 4 54Q 0 54 0 50Z" stroke="rgba(33,41,48,1)" stroke-width="1.5" fill-opacity="1" fill="#ffffff"></path><g id="SvgjsG1239"><text id="SvgjsText1240" font-family="微软雅黑" text-anchor="middle" font-size="13px" width="95px" fill="#323232" font-weight="400" align="middle" lineHeight="125%" anchor="middle" family="微软雅黑" size="13px" weight="400" font-style="" opacity="1" y="16.375" transform="rotate(0)"><tspan id="SvgjsTspan1241" dy="16.25" x="57.5"><tspan id="SvgjsTspan1242" style="">Monte Carlo</tspan></tspan></text></g></g><g id="SvgjsG1243" transform="translate(495,25)"><path id="SvgjsPath1244" d="M 0 4Q 0 0 4 0L 111 0Q 115 0 115 4L 115 50Q 115 54 111 54L 4 54Q 0 54 0 50Z" stroke="rgba(33,41,48,1)" stroke-width="1.5" fill-opacity="1" fill="#ffffff"></path><g id="SvgjsG1245"><text id="SvgjsText1246" font-family="微软雅黑" text-anchor="middle" font-size="13px" width="95px" fill="#323232" font-weight="400" align="middle" lineHeight="125%" anchor="middle" family="微软雅黑" size="13px" weight="400" font-style="" opacity="1" y="8.375" transform="rotate(0)"><tspan id="SvgjsTspan1247" dy="16.25" x="57.5"><tspan id="SvgjsTspan1248" style="">Temporal</tspan></tspan><tspan id="SvgjsTspan1249" dy="16.25" x="57.5"><tspan id="SvgjsTspan1250" style="">Difference</tspan></tspan></text></g></g><g id="SvgjsG1251" transform="translate(495,159)"><path id="SvgjsPath1252" d="M 0 4Q 0 0 4 0L 111 0Q 115 0 115 4L 115 50Q 115 54 111 54L 4 54Q 0 54 0 50Z" stroke="rgba(33,41,48,1)" stroke-width="1.5" fill-opacity="1" fill="#ffffff"></path><g id="SvgjsG1253"><text id="SvgjsText1254" font-family="微软雅黑" text-anchor="middle" font-size="13px" width="95px" fill="#323232" font-weight="400" align="middle" lineHeight="125%" anchor="middle" family="微软雅黑" size="13px" weight="400" font-style="" opacity="1" y="8.375" transform="rotate(0)"><tspan id="SvgjsTspan1255" dy="16.25" x="57.5"><tspan id="SvgjsTspan1256" style="">Value Function</tspan></tspan><tspan id="SvgjsTspan1257" dy="16.25" x="57.5"><tspan id="SvgjsTspan1258" style=""> Approximation</tspan></tspan></text></g></g><g id="SvgjsG1259" transform="translate(260,159)"><path id="SvgjsPath1260" d="M 0 4Q 0 0 4 0L 111 0Q 115 0 115 4L 115 50Q 115 54 111 54L 4 54Q 0 54 0 50Z" stroke="rgba(33,41,48,1)" stroke-width="1.5" fill-opacity="1" fill="#ffffff"></path><g id="SvgjsG1261"><text id="SvgjsText1262" font-family="微软雅黑" text-anchor="middle" font-size="13px" width="95px" fill="#323232" font-weight="400" align="middle" lineHeight="125%" anchor="middle" family="微软雅黑" size="13px" weight="400" font-style="" opacity="1" y="16.375" transform="rotate(0)"><tspan id="SvgjsTspan1263" dy="16.25" x="57.5"><tspan id="SvgjsTspan1264" style="">Policy Gradient</tspan></tspan></text></g></g><g id="SvgjsG1265" transform="translate(25,159)"><path id="SvgjsPath1266" d="M 0 4Q 0 0 4 0L 111 0Q 115 0 115 4L 115 50Q 115 54 111 54L 4 54Q 0 54 0 50Z" stroke="rgba(33,41,48,1)" stroke-width="1.5" fill-opacity="1" fill="#ffffff"></path><g id="SvgjsG1267"><text id="SvgjsText1268" font-family="微软雅黑" text-anchor="middle" font-size="13px" width="95px" fill="#323232" font-weight="400" align="middle" lineHeight="125%" anchor="middle" family="微软雅黑" size="13px" weight="400" font-style="" opacity="1" y="16.375" transform="rotate(0)"><tspan id="SvgjsTspan1269" dy="16.25" x="57.5"><tspan id="SvgjsTspan1270" style="">Actor-Critic</tspan></tspan></text></g></g><g id="SvgjsG1271"><path id="SvgjsPath1272" d="M375.75 52L435 52L435 52L492.29999999999995 52" stroke="#323232" stroke-width="1.5" fill="none" marker-end="url(#SvgjsMarker1273)"></path></g><g id="SvgjsG1275"><path id="SvgjsPath1276" d="M552.5 79.75L552.5 119L552.5 119L552.5 156.3" stroke="#323232" stroke-width="1.5" fill="none" marker-end="url(#SvgjsMarker1277)"></path></g><g id="SvgjsG1279"><path id="SvgjsPath1280" d="M494.25 186L435 186L435 186L377.7 186" stroke="#323232" stroke-width="1.5" fill="none" marker-end="url(#SvgjsMarker1281)"></path></g><g id="SvgjsG1283"><path id="SvgjsPath1284" d="M259.25 186L142.7 186" stroke="#323232" stroke-width="1.5" fill="none" marker-end="url(#SvgjsMarker1285)"></path></g><g id="SvgjsG1287" transform="translate(140,32)"><path id="SvgjsPath1288" d="M 0 0L 120 0L 120 40L 0 40Z" stroke="none" fill="none"></path><g id="SvgjsG1289"><text id="SvgjsText1290" font-family="微软雅黑" text-anchor="middle" font-size="13px" width="120px" fill="#323232" font-weight="400" align="middle" lineHeight="125%" anchor="middle" family="微软雅黑" size="13px" weight="400" font-style="" opacity="1" y="1.375" transform="rotate(0)"><tspan id="SvgjsTspan1291" dy="16.25" x="60"><tspan id="SvgjsTspan1292" style="">with model</tspan></tspan><tspan id="SvgjsTspan1293" dy="16.25" x="60"><tspan id="SvgjsTspan1294" style="">without model</tspan></tspan></text></g></g><g id="SvgjsG1295" transform="translate(375,32)"><path id="SvgjsPath1296" d="M 0 0L 120 0L 120 40L 0 40Z" stroke="none" fill="none"></path><g id="SvgjsG1297"><text id="SvgjsText1298" font-family="微软雅黑" text-anchor="middle" font-size="13px" width="120px" fill="#323232" font-weight="400" align="middle" lineHeight="125%" anchor="middle" family="微软雅黑" size="13px" weight="400" font-style="" opacity="1" y="1.375" transform="rotate(0)"><tspan id="SvgjsTspan1299" dy="16.25" x="60"><tspan id="SvgjsTspan1300" style="">non-incremental</tspan></tspan><tspan id="SvgjsTspan1301" dy="16.25" x="60"><tspan id="SvgjsTspan1302" style="">incremental</tspan></tspan></text></g></g><g id="SvgjsG1303"><path id="SvgjsPath1304" d="M140.75 52L200 52L200 52L257.3 52" stroke="#323232" stroke-width="1.5" fill="none" marker-end="url(#SvgjsMarker1305)"></path></g><g id="SvgjsG1307" transform="translate(375,166)"><path id="SvgjsPath1308" d="M 0 0L 120 0L 120 40L 0 40Z" stroke="none" fill="none"></path><g id="SvgjsG1309"><text id="SvgjsText1310" font-family="微软雅黑" text-anchor="middle" font-size="13px" width="120px" fill="#323232" font-weight="400" align="middle" lineHeight="125%" anchor="middle" family="微软雅黑" size="13px" weight="400" font-style="" opacity="1" y="1.375" transform="rotate(0)"><tspan id="SvgjsTspan1311" dy="16.25" x="60"><tspan id="SvgjsTspan1312" style="">value-based</tspan></tspan><tspan id="SvgjsTspan1313" dy="16.25" x="60"><tspan id="SvgjsTspan1314" style="">policy-based</tspan></tspan></text></g></g><g id="SvgjsG1315" transform="translate(140,162)"><path id="SvgjsPath1316" d="M 0 0L 120 0L 120 48L 0 48Z" stroke="none" fill="none"></path><g id="SvgjsG1317"><text id="SvgjsText1318" font-family="微软雅黑" text-anchor="middle" font-size="13px" width="120px" fill="#323232" font-weight="400" align="middle" lineHeight="125%" anchor="middle" family="微软雅黑" size="13px" weight="400" font-style="" opacity="1" y="-2.625" transform="rotate(0)"><tspan id="SvgjsTspan1319" dy="16.25" x="60"><tspan id="SvgjsTspan1320" style="">value-based</tspan></tspan><tspan id="SvgjsTspan1321" dy="16.25" x="60"><tspan id="SvgjsTspan1322" style="">plus</tspan></tspan><tspan id="SvgjsTspan1323" dy="16.25" x="60"><tspan id="SvgjsTspan1324" style="">policy-based</tspan></tspan></text></g></g><g id="SvgjsG1325" transform="translate(541,99)"><path id="SvgjsPath1326" d="M 0 0L 120 0L 120 40L 0 40Z" stroke="none" fill="none"></path><g id="SvgjsG1327"><text id="SvgjsText1328" font-family="微软雅黑" text-anchor="middle" font-size="13px" width="120px" fill="#323232" font-weight="400" align="middle" lineHeight="125%" anchor="middle" family="微软雅黑" size="13px" weight="400" font-style="" opacity="1" y="1.375" transform="rotate(0)"><tspan id="SvgjsTspan1329" dy="16.25" x="60"><tspan id="SvgjsTspan1330" style="">function</tspan></tspan><tspan id="SvgjsTspan1331" dy="16.25" x="60"><tspan id="SvgjsTspan1332" style="">representation</tspan></tspan></text></g></g></svg>